# xmcd
#
# Track frame offsets: 
#        150
#        23645
#        42292
#        57660
#        78750
#        100472
#        122240
#        134100
#        160502
#        185732
#        202772
#
# Disc length: 2891 seconds
#
# Revision: 11
# Processed by: cddbd v1.5.2PL0 Copyright (c) Steve Scherf et al.
# Submitted via: ExactAudioCopy v1.0b1
#
DISCID=940b490b
DTITLE=Paul McCartney and Wings - Band On The Run
DYEAR=1973
DGENRE=Rock
TTITLE0=Band On The Run
TTITLE1=Jet
TTITLE2=Bluebird
TTITLE3=Mrs Vandebilt
TTITLE4=Let Me Roll It
TTITLE5=Mamunia
TTITLE6=No Words
TTITLE7=Picasso's Last Words (Drink To Me)
TTITLE8=Nineteen Hundred And Eighty Five
TTITLE9=Helen Wheels
TTITLE10=Country Dreamer
EXTD=YEAR: 1973
EXTT0=
EXTT1=
EXTT2=
EXTT3=
EXTT4=
EXTT5=
EXTT6=
EXTT7=
EXTT8=
EXTT9=
EXTT10=
PLAYORDER=
